<svg xmlns="http://www.w3.org/2000/svg" viewBox="0 0 184 43"
     width="184" height="43" role="img" aria-labelledby="heading-title">
  <title id="heading-title">Inventory</title>
  <!-- League Spartan Bold, converted to paths. -->
  <defs>
    <path id="g71" d="M1.88,-26.4L7.86,-26.4 7.86,0 1.88,0z"/>
    <path id="g309" d="M12.98,-16.9C14.13,-16.9 15.25,-16.67 16.34,-16.2 17.43,-15.73 18.33,-14.99 19.04,-13.98 19.75,-12.97 20.1,-11.65 20.1,-10.02L20.1,0 14,0 14,-9.02C14,-10.18 13.72,-11.06 13.16,-11.66 12.6,-12.26 11.87,-12.56 10.96,-12.56 10.05,-12.56 9.25,-12.21 8.55,-11.52 7.85,-10.83 7.5,-9.93 7.5,-8.82L7.5,0 1.42,0 1.42,-16.42 7.5,-16.42 7.5,-14C7.65,-14.44 7.98,-14.88 8.5,-15.33 9.02,-15.78 9.67,-16.15 10.45,-16.45 11.23,-16.75 12.07,-16.9 12.98,-16.9z"/>
    <path id="g395" d="M0.2,-16.42L6.7,-16.42 10.66,-5.52 14.64,-16.42 21.1,-16.42 14.22,0 7.1,0z"/>
    <path id="g248" d="M6.52,-6.94C6.57,-6.03 6.95,-5.3 7.66,-4.74 8.37,-4.18 9.34,-3.9 10.58,-3.9 11.73,-3.9 12.71,-4.07 13.54,-4.4 14.37,-4.73 14.97,-5.09 15.36,-5.48L17.72,-1.72C17.2,-1.17 16.38,-0.67 15.25,-0.21 14.12,0.25 12.43,0.48 10.18,0.48 8.35,0.48 6.73,0.14 5.32,-0.54 3.91,-1.22 2.8,-2.22 2,-3.54 1.2,-4.86 0.8,-6.48 0.8,-8.4 0.8,-9.99 1.15,-11.42 1.85,-12.71 2.55,-14 3.56,-15.02 4.89,-15.77 6.22,-16.52 7.82,-16.9 9.7,-16.9 12.38,-16.9 14.51,-16.17 16.09,-14.7 17.67,-13.23 18.46,-11.07 18.46,-8.22 18.46,-8.1 18.45,-7.88 18.44,-7.56 18.43,-7.24 18.41,-7.03 18.4,-6.94z M12.74,-10.1C12.71,-10.74 12.47,-11.36 12,-11.95 11.53,-12.54 10.8,-12.84 9.8,-12.84 8.79,-12.84 8.02,-12.56 7.5,-12 6.98,-11.44 6.7,-10.81 6.66,-10.1z"/>
    <path id="g364" d="M0.28,-16.42L3.08,-16.42 3.08,-23.16 9.1,-23.16 9.1,-16.42 12.78,-16.42 12.78,-11.42 9.1,-11.42 9.1,-6.84C9.1,-6.16 9.2,-5.61 9.4,-5.19 9.6,-4.77 9.97,-4.56 10.5,-4.56 10.86,-4.56 11.17,-4.64 11.43,-4.79 11.69,-4.94 11.84,-5.05 11.88,-5.12L13.96,-0.8C13.85,-0.71 13.56,-0.56 13.09,-0.36 12.62,-0.16 12,0.03 11.25,0.21 10.5,0.39 9.66,0.48 8.74,0.48 7.09,0.48 5.73,0.02 4.67,-0.91 3.61,-1.84 3.08,-3.27 3.08,-5.2L3.08,-11.42 0.28,-11.42z"/>
    <path id="g316" d="M10.04,0.48C8.24,0.48 6.64,0.11 5.25,-0.63 3.86,-1.37 2.76,-2.39 1.97,-3.69 1.18,-4.99 0.78,-6.48 0.78,-8.16 0.78,-9.84 1.18,-11.34 1.97,-12.65 2.76,-13.96 3.86,-15 5.25,-15.76 6.64,-16.52 8.24,-16.9 10.04,-16.9 11.84,-16.9 13.43,-16.52 14.8,-15.76 16.17,-15 17.25,-13.96 18.02,-12.65 18.79,-11.34 19.18,-9.84 19.18,-8.16 19.18,-6.48 18.79,-4.99 18.02,-3.69 17.25,-2.39 16.17,-1.37 14.8,-0.63 13.43,0.11 11.84,0.48 10.04,0.48z M10.04,-4.52C11.08,-4.52 11.91,-4.86 12.52,-5.54 13.13,-6.22 13.44,-7.1 13.44,-8.18 13.44,-9.26 13.13,-10.15 12.52,-10.85 11.91,-11.55 11.08,-11.9 10.04,-11.9 8.99,-11.9 8.15,-11.55 7.53,-10.85 6.91,-10.15 6.6,-9.26 6.6,-8.18 6.6,-7.1 6.91,-6.22 7.53,-5.54 8.15,-4.86 8.99,-4.52 10.04,-4.52z"/>
    <path id="g351" d="M7.24,0L1.16,0 1.16,-16.42 7.24,-16.42 7.24,-14.1C7.4,-14.43 7.7,-14.82 8.13,-15.26 8.56,-15.7 9.13,-16.08 9.84,-16.41 10.55,-16.74 11.4,-16.9 12.4,-16.9 13.16,-16.9 13.86,-16.78 14.49,-16.55 15.12,-16.32 15.59,-16.09 15.9,-15.88L13.54,-10.94C13.35,-11.17 13.02,-11.4 12.55,-11.65 12.08,-11.9 11.49,-12.02 10.78,-12.02 9.95,-12.02 9.28,-11.81 8.76,-11.4 8.24,-10.99 7.86,-10.49 7.61,-9.9 7.36,-9.31 7.24,-8.76 7.24,-8.24z"/>
    <path id="g402" d="M9.96,-5.26L14.4,-16.42 20.36,-16.42 9.08,8.32 3,8.32 6.8,0 -0.06,-16.42 6,-16.42z"/>
    <path id="g471" d="M5.76,0.48C4.76,0.48 3.91,0.13 3.2,-0.58 2.49,-1.29 2.14,-2.14 2.14,-3.14 2.14,-4.15 2.49,-5.02 3.2,-5.73 3.91,-6.44 4.76,-6.8 5.76,-6.8 6.77,-6.8 7.63,-6.44 8.34,-5.73 9.05,-5.02 9.4,-4.15 9.4,-3.14 9.4,-2.14 9.05,-1.29 8.34,-0.58 7.63,0.13 6.77,0.48 5.76,0.48z"/>
  </defs>
  <g fill="#1f2328">
    <use href="#g71" x="1.12" y="30.4"/>
    <use href="#g309" x="11.92" y="30.4"/>
    <use href="#g395" x="33.88" y="30.4"/>
    <use href="#g248" x="55.76" y="30.4"/>
    <use href="#g309" x="75.68" y="30.4"/>
    <use href="#g364" x="97.64" y="30.4"/>
    <use href="#g316" x="112.2" y="30.4"/>
    <use href="#g351" x="132.84" y="30.4"/>
    <use href="#g402" x="148.68" y="30.4"/>
    <use href="#g471" x="171.3" y="30.4" fill="#df3800"/>
  </g>
</svg>
