<svg xmlns="http://www.w3.org/2000/svg" viewBox="0 0 201 37"
     width="201" height="37" role="img" aria-labelledby="heading-title">
  <title id="heading-title">QA2: Fuzzing</title>
  <!-- League Spartan Bold, converted to paths. -->
  <defs>
    <path id="g139" d="M0.66,-10.58C0.66,-12.11 0.93,-13.54 1.47,-14.87 2.02,-16.2 2.78,-17.36 3.77,-18.35 4.75,-19.34 5.9,-20.12 7.22,-20.67 8.53,-21.23 9.96,-21.5 11.5,-21.5 13.06,-21.5 14.5,-21.23 15.82,-20.67 17.13,-20.12 18.28,-19.34 19.26,-18.35 20.23,-17.36 20.99,-16.2 21.53,-14.87 22.07,-13.54 22.34,-12.11 22.34,-10.58 22.34,-8.83 22,-7.22 21.32,-5.74 20.64,-4.27 19.69,-3.03 18.47,-2.02 17.25,-1 15.82,-0.3 14.19,0.08 14.69,0.22 15.18,0.35 15.64,0.47 16.1,0.59 16.61,0.66 17.15,0.66 18.05,0.66 18.81,0.51 19.44,0.22 20.07,-0.06 20.42,-0.25 20.48,-0.34L22.1,2.8C21.78,3.32 21.19,3.83 20.35,4.31 19.51,4.8 18.45,5.04 17.18,5.04 16.39,5.04 15.73,4.95 15.18,4.77 14.64,4.59 14.13,4.38 13.66,4.14 13.18,3.9 12.67,3.69 12.12,3.5 11.57,3.32 10.9,3.23 10.1,3.23 9.43,3.23 8.86,3.33 8.36,3.53 7.86,3.73 7.47,3.93 7.19,4.14 6.91,4.34 6.76,4.46 6.74,4.5L4.78,2.19C5.21,1.7 5.73,1.27 6.33,0.89 6.93,0.51 7.61,0.21 8.37,-0.02 6.8,-0.44 5.44,-1.16 4.28,-2.18 3.12,-3.19 2.23,-4.42 1.6,-5.86 0.97,-7.3 0.66,-8.87 0.66,-10.58z M5.63,-10.58C5.63,-9.37 5.88,-8.28 6.38,-7.3 6.87,-6.33 7.56,-5.55 8.44,-4.98 9.32,-4.4 10.34,-4.11 11.5,-4.11 12.67,-4.11 13.69,-4.4 14.57,-4.98 15.45,-5.55 16.14,-6.33 16.63,-7.3 17.13,-8.28 17.38,-9.37 17.38,-10.58 17.38,-11.77 17.13,-12.86 16.63,-13.84 16.14,-14.82 15.45,-15.6 14.57,-16.18 13.69,-16.75 12.67,-17.04 11.5,-17.04 10.34,-17.04 9.32,-16.75 8.44,-16.17 7.56,-15.59 6.87,-14.81 6.38,-13.83 5.88,-12.86 5.63,-11.77 5.63,-10.58z"/>
    <path id="g1" d="M8.18,-21.12L12.93,-21.12 21.26,0 16.16,0 14.62,-4.24 6.5,-4.24 4.94,0 -0.18,0z M8.1,-8.43L13.04,-8.43 10.59,-15.36 10.54,-15.36z"/>
    <path id="g451" d="M8.94,-17.44C8.23,-17.44 7.6,-17.27 7.06,-16.94 6.53,-16.6 6.07,-16.21 5.71,-15.76 5.35,-15.31 5.07,-14.9 4.87,-14.54 4.67,-14.17 4.57,-13.95 4.56,-13.89L0.46,-15.76C0.49,-15.89 0.59,-16.17 0.77,-16.59 0.95,-17.02 1.24,-17.51 1.63,-18.06 2.03,-18.61 2.55,-19.14 3.19,-19.67 3.84,-20.2 4.63,-20.64 5.58,-20.98 6.52,-21.33 7.64,-21.5 8.94,-21.5 10.44,-21.5 11.68,-21.29 12.66,-20.86 13.65,-20.44 14.43,-19.88 15.01,-19.19 15.58,-18.5 15.99,-17.76 16.23,-16.96 16.47,-16.16 16.59,-15.39 16.59,-14.66 16.59,-13.55 16.33,-12.49 15.82,-11.48 15.3,-10.47 14.65,-9.54 13.88,-8.67 13.11,-7.81 12.33,-7.05 11.54,-6.4 10.75,-5.75 10.06,-5.23 9.49,-4.84 8.91,-4.45 8.57,-4.22 8.46,-4.16L16.42,-4.16 16.42,0 1.26,0 1.26,-3.79C1.42,-3.91 1.79,-4.17 2.35,-4.58 2.92,-4.98 3.6,-5.49 4.4,-6.1 5.2,-6.7 6.03,-7.37 6.88,-8.1 7.73,-8.83 8.53,-9.59 9.27,-10.36 10.01,-11.13 10.62,-11.89 11.09,-12.64 11.56,-13.39 11.79,-14.08 11.79,-14.72 11.79,-15.71 11.54,-16.41 11.05,-16.82 10.55,-17.23 9.85,-17.44 8.94,-17.44z"/>
    <path id="g473" d="M4.56,0.38C3.76,0.38 3.08,0.1 2.51,-0.46 1.95,-1.03 1.66,-1.71 1.66,-2.51 1.66,-3.32 1.95,-4.01 2.51,-4.58 3.08,-5.15 3.76,-5.44 4.56,-5.44 5.37,-5.44 6.06,-5.15 6.62,-4.58 7.19,-4.01 7.47,-3.32 7.47,-2.51 7.47,-1.71 7.19,-1.03 6.62,-0.46 6.06,0.1 5.37,0.38 4.56,0.38z M4.56,-8.91C3.76,-8.91 3.08,-9.19 2.51,-9.76 1.95,-10.33 1.66,-11.01 1.66,-11.81 1.66,-12.62 1.95,-13.31 2.51,-13.88 3.08,-14.45 3.76,-14.74 4.56,-14.74 5.37,-14.74 6.06,-14.45 6.62,-13.88 7.19,-13.31 7.47,-12.62 7.47,-11.81 7.47,-11.01 7.19,-10.33 6.62,-9.76 6.06,-9.19 5.37,-8.91 4.56,-8.91z"/>
    <path id="g61" d="M1.46,-21.12L13.66,-21.12 13.66,-16.93 6.24,-16.93 6.24,-12.67 13.1,-12.67 13.1,-8.5 6.24,-8.5 6.24,0 1.46,0z"/>
    <path id="g369" d="M5.95,-7.06C5.95,-6.01 6.15,-5.18 6.54,-4.55 6.93,-3.93 7.59,-3.62 8.53,-3.62 9.48,-3.62 10.15,-3.93 10.54,-4.55 10.93,-5.18 11.12,-6.01 11.12,-7.06L11.12,-13.14 15.92,-13.14 15.92,-6.54C15.92,-4.43 15.28,-2.75 13.99,-1.5 12.71,-0.24 10.89,0.38 8.53,0.38 6.18,0.38 4.37,-0.24 3.09,-1.5 1.81,-2.75 1.17,-4.43 1.17,-6.54L1.17,-13.14 5.95,-13.14z"/>
    <path id="g411" d="M0.99,-13.14L14,-13.14 7.44,-3.39 13.49,-3.39 13.49,0 -0.06,0 6.48,-9.76 0.99,-9.76z"/>
    <path id="g279" d="M4,-15.84C3.23,-15.84 2.58,-16.11 2.05,-16.65 1.51,-17.19 1.25,-17.83 1.25,-18.58 1.25,-19.32 1.52,-19.97 2.06,-20.52 2.59,-21.07 3.24,-21.34 4,-21.34 4.75,-21.34 5.39,-21.07 5.94,-20.53 6.49,-19.98 6.77,-19.33 6.77,-18.58 6.77,-17.83 6.5,-17.19 5.95,-16.65 5.41,-16.11 4.76,-15.84 4,-15.84z M1.5,0L1.5,-13.14 6.37,-13.14 6.37,0z"/>
    <path id="g309" d="M10.38,-13.52C11.3,-13.52 12.2,-13.33 13.07,-12.96 13.95,-12.59 14.67,-11.99 15.23,-11.18 15.8,-10.37 16.08,-9.32 16.08,-8.02L16.08,0 11.2,0 11.2,-7.22C11.2,-8.14 10.98,-8.85 10.53,-9.33 10.08,-9.81 9.49,-10.05 8.77,-10.05 8.04,-10.05 7.4,-9.77 6.84,-9.22 6.28,-8.66 6,-7.94 6,-7.06L6,0 1.14,0 1.14,-13.14 6,-13.14 6,-11.2C6.12,-11.55 6.38,-11.91 6.8,-12.26 7.22,-12.62 7.74,-12.92 8.36,-13.16 8.98,-13.4 9.66,-13.52 10.38,-13.52z"/>
    <path id="g270" d="M8.24,7.02C6.86,7.02 5.52,6.83 4.2,6.46 2.88,6.08 1.82,5.39 1.02,4.38L3.87,1.42C4.23,1.86 4.74,2.27 5.38,2.66 6.02,3.04 6.9,3.23 8.03,3.23 9.08,3.23 9.92,2.96 10.57,2.42 11.21,1.87 11.54,1.09 11.54,0.08L11.54,-2.13C11.43,-1.9 11.18,-1.59 10.8,-1.19 10.42,-0.79 9.9,-0.43 9.26,-0.1 8.62,0.22 7.88,0.38 7.02,0.38 5.74,0.38 4.62,0.07 3.66,-0.55 2.7,-1.18 1.96,-2.01 1.42,-3.06 0.89,-4.11 0.62,-5.28 0.62,-6.56 0.62,-7.84 0.89,-9.01 1.42,-10.06 1.96,-11.12 2.7,-11.96 3.66,-12.58 4.62,-13.21 5.74,-13.52 7.02,-13.52 7.85,-13.52 8.56,-13.39 9.18,-13.13 9.79,-12.87 10.29,-12.55 10.68,-12.19 11.07,-11.83 11.34,-11.5 11.49,-11.22L11.49,-13.14 16.32,-13.14 16.32,0.37C16.32,1.83 15.96,3.06 15.24,4.05 14.52,5.04 13.55,5.78 12.34,6.28 11.12,6.78 9.75,7.02 8.24,7.02z M5.39,-6.56C5.39,-5.65 5.69,-4.91 6.3,-4.32 6.9,-3.73 7.62,-3.44 8.46,-3.44 9.34,-3.44 10.06,-3.74 10.62,-4.33 11.19,-4.92 11.47,-5.66 11.47,-6.56 11.47,-7.46 11.19,-8.2 10.62,-8.8 10.06,-9.4 9.34,-9.7 8.46,-9.7 7.62,-9.7 6.9,-9.4 6.3,-8.81 5.69,-8.22 5.39,-7.47 5.39,-6.56z"/>
    <path id="g471" d="M4.61,0.38C3.81,0.38 3.13,0.1 2.56,-0.46 1.99,-1.03 1.71,-1.71 1.71,-2.51 1.71,-3.32 1.99,-4.01 2.56,-4.58 3.13,-5.15 3.81,-5.44 4.61,-5.44 5.42,-5.44 6.11,-5.15 6.67,-4.58 7.24,-4.01 7.52,-3.32 7.52,-2.51 7.52,-1.71 7.24,-1.03 6.67,-0.46 6.11,0.1 5.42,0.38 4.61,0.38z"/>
  </defs>
  <g fill="#1f2328">
    <use href="#g139" x="2.34" y="25.5"/>
    <use href="#g1" x="24.81" y="25.5"/>
    <use href="#g451" x="46.44" y="25.5"/>
    <use href="#g473" x="64.65" y="25.5"/>
    <use href="#g61" x="82.22" y="25.5"/>
    <use href="#g369" x="97.58" y="25.5"/>
    <use href="#g411" x="115.11" y="25.5"/>
    <use href="#g411" x="129.48" y="25.5"/>
    <use href="#g279" x="143.85" y="25.5"/>
    <use href="#g309" x="152.23" y="25.5"/>
    <use href="#g270" x="169.8" y="25.5"/>
    <use href="#g471" x="189.94" y="25.5" fill="#df3800"/>
  </g>
</svg>
