<svg xmlns="http://www.w3.org/2000/svg" viewBox="0 0 220 37"
     width="220" height="37" role="img" aria-labelledby="heading-title">
  <title id="heading-title">Add controller</title>
  <!-- League Spartan Bold, converted to paths. -->
  <defs>
    <path id="g97" d="M0.360275 0L0.360275 0.066631Q0.35582 0.056274 0.337749 0.037338Q0.319679 0.018406 0.289677 0.003201Q0.259678 -0.012001 0.219273 -0.012001Q0.159679 -0.012001 0.114613 0.017181Q0.069546 0.046368 0.044544 0.095592Q0.019547 0.144821 0.019547 0.205002Q0.019547 0.265179 0.044544 0.314404Q0.069546 0.363632 0.114613 0.393066Q0.159679 0.422501 0.219273 0.422501Q0.258228 0.422501 0.287022 0.41016Q0.315819 0.39782 0.334023 0.381134Q0.352226 0.364452 0.358822 0.350639L0.358822 0.4105L0.509819 0.4105L0.509819 0L0.360275 0ZM0.16864 0.205002Q0.16864 0.176819 0.181641 0.154591Q0.194641 0.132366 0.21632 0.11982Q0.237999 0.107273 0.264275 0.107273Q0.291775 0.107273 0.312908 0.119957Q0.334045 0.132641 0.346157 0.154865Q0.358273 0.177094 0.358273 0.205002Q0.358273 0.232906 0.346157 0.255131Q0.334045 0.277359 0.312908 0.290291Q0.291775 0.303226 0.264275 0.303226Q0.237999 0.303226 0.21632 0.290428Q0.194641 0.277634 0.181641 0.255405Q0.16864 0.233181 0.16864 0.205002Z"/>
    <path id="g100" d="M0.217907 -0.012001Q0.158321 -0.012001 0.114338 0.017181Q0.070358 0.046368 0.046089 0.095592Q0.02182 0.144821 0.02182 0.205002Q0.02182 0.265179 0.046089 0.314404Q0.070358 0.363632 0.114338 0.393066Q0.158321 0.422501 0.217907 0.422501Q0.257359 0.422501 0.287907 0.410297Q0.318455 0.398094 0.337364 0.381409Q0.356274 0.364727 0.36068 0.350639L0.36068 0.688L0.512367 0.688L0.512367 0L0.362179 0L0.362179 0.066631Q0.352314 0.048 0.33086 0.029861Q0.309406 0.011726 0.280361 -0.000137Q0.25132 -0.012001 0.217907 -0.012001ZM0.264366 0.107273Q0.291866 0.107273 0.31361 0.119957Q0.335358 0.132641 0.348019 0.154865Q0.36068 0.177094 0.36068 0.205002Q0.36068 0.232906 0.348019 0.255131Q0.335358 0.277359 0.31361 0.290291Q0.291866 0.303226 0.264366 0.303226Q0.238228 0.303226 0.216976 0.290428Q0.195728 0.277634 0.183273 0.255405Q0.170822 0.233181 0.170822 0.205002Q0.170822 0.176819 0.183273 0.154591Q0.195728 0.132366 0.216976 0.11982Q0.238228 0.107273 0.264366 0.107273Z"/>
    <path id="g99" d="M0.264679 0.107273Q0.293045 0.107273 0.311546 0.117111Q0.330048 0.126953 0.336407 0.133045L0.406094 0.029774Q0.397999 0.023273 0.378544 0.013226Q0.359093 0.003181 0.329842 -0.00441Q0.300594 -0.012001 0.263226 -0.012001Q0.192322 -0.012001 0.138977 0.014839Q0.085632 0.041679 0.055882 0.090542Q0.026134 0.139408 0.026134 0.205502Q0.026134 0.272095 0.055882 0.320637Q0.085632 0.369179 0.138977 0.39584Q0.192322 0.422501 0.263226 0.422501Q0.299866 0.422501 0.329067 0.414814Q0.358273 0.407131 0.378433 0.397224Q0.398594 0.387321 0.406593 0.380272L0.335594 0.276634Q0.33218 0.280048 0.322929 0.286411Q0.313679 0.292774 0.299179 0.298Q0.284679 0.303226 0.264679 0.303226Q0.240002 0.303226 0.218731 0.29052Q0.19746 0.277813 0.184525 0.255836Q0.171593 0.23386 0.171593 0.205502Q0.171593 0.177139 0.184525 0.154911Q0.19746 0.132687 0.218731 0.11998Q0.240002 0.107273 0.264679 0.107273Z"/>
    <path id="g111" d="M0.250999 -0.012001Q0.183727 -0.012001 0.131409 0.015724Q0.079094 0.043453 0.04932 0.092274Q0.019547 0.141094 0.019547 0.203999Q0.019547 0.266907 0.04932 0.316292Q0.079094 0.365681 0.131409 0.394089Q0.183727 0.422501 0.250999 0.422501Q0.318272 0.422501 0.369797 0.394089Q0.421322 0.365681 0.450481 0.316292Q0.479641 0.266907 0.479641 0.203999Q0.479641 0.141094 0.450481 0.092274Q0.421322 0.043453 0.369797 0.015724Q0.318272 -0.012001 0.250999 -0.012001ZM0.250999 0.113094Q0.27718 0.113094 0.296177 0.124615Q0.315178 0.136139 0.325588 0.156979Q0.335999 0.177822 0.335999 0.204727Q0.335999 0.231632 0.325588 0.252609Q0.315178 0.273586 0.296177 0.285496Q0.27718 0.297405 0.250999 0.297405Q0.224819 0.297405 0.20557 0.285496Q0.186321 0.273586 0.175659 0.252609Q0.165001 0.231632 0.165001 0.204727Q0.165001 0.177822 0.175659 0.156979Q0.186321 0.136139 0.20557 0.124615Q0.224819 0.113094 0.250999 0.113094Z"/>
    <path id="g110" d="M0.324322 0.422501Q0.367641 0.422501 0.40855 0.40509Q0.449463 0.38768 0.475979 0.349751Q0.502499 0.311821 0.502499 0.250454L0.502499 0L0.350227 0L0.350227 0.225407Q0.350227 0.269272 0.329227 0.291702Q0.308228 0.314133 0.274227 0.314133Q0.251678 0.314133 0.231815 0.302227Q0.211952 0.290321 0.199837 0.269226Q0.187725 0.248135 0.187725 0.220367L0.187725 0L0.035728 0L0.035728 0.4105L0.187725 0.4105L0.187725 0.35014Q0.193272 0.36668 0.212681 0.383362Q0.232094 0.400047 0.261318 0.411274Q0.290546 0.422501 0.324322 0.422501Z"/>
    <path id="g116" d="M0.007225 0.4105L0.077087 0.4105L0.077087 0.578999L0.227272 0.578999L0.227272 0.4105L0.319546 0.4105L0.319546 0.285408L0.227272 0.285408L0.227272 0.171188Q0.227272 0.145687 0.234997 0.129936Q0.242725 0.114189 0.262455 0.114189Q0.276142 0.114189 0.285641 0.120003Q0.295139 0.12582 0.297142 0.12796L0.348999 0.02Q0.345413 0.016773 0.327274 0.008953Q0.309139 0.001133 0.281067 -0.005432Q0.252998 -0.012001 0.218548 -0.012001Q0.156952 -0.012001 0.11702 0.022747Q0.077087 0.057499 0.077087 0.130093L0.077087 0.285408L0.007225 0.285408L0.007225 0.4105Z"/>
    <path id="g114" d="M0.180775 0L0.029045 0L0.029045 0.4105L0.180775 0.4105L0.180775 0.346954L0.178272 0.346954Q0.182686 0.358643 0.198204 0.376366Q0.213726 0.394093 0.241611 0.408295Q0.269501 0.422501 0.310143 0.422501Q0.338413 0.422501 0.362411 0.413864Q0.386414 0.405228 0.397415 0.396774L0.338272 0.273361Q0.331642 0.282131 0.313778 0.291222Q0.295914 0.300312 0.269455 0.300312Q0.238819 0.300312 0.219158 0.284946Q0.199501 0.269585 0.190136 0.247631Q0.180775 0.225681 0.180775 0.205906L0.180775 0Z"/>
    <path id="g108" d="M0.193821 0L0.041546 0L0.041546 0.688L0.193821 0.688L0.193821 0Z"/>
    <path id="g101" d="M0.162758 0.173248Q0.164509 0.151001 0.176884 0.133873Q0.189259 0.116749 0.211502 0.107124Q0.233749 0.0975 0.2645 0.0975Q0.293251 0.0975 0.316624 0.103374Q0.34 0.109249 0.35725 0.118374Q0.3745 0.127499 0.383751 0.137001L0.442749 0.042999Q0.430248 0.029499 0.407623 0.016872Q0.384998 0.00425 0.348 -0.003876Q0.311001 -0.012001 0.254501 -0.012001Q0.186249 -0.012001 0.133247 0.0135Q0.08025 0.039001 0.049999 0.088623Q0.019749 0.138248 0.019749 0.209751Q0.019749 0.269749 0.045998 0.317997Q0.07225 0.366249 0.122124 0.394375Q0.172001 0.422501 0.2425 0.422501Q0.309502 0.422501 0.358624 0.397999Q0.407749 0.373501 0.434498 0.325249Q0.46125 0.277 0.46125 0.20525Q0.46125 0.201248 0.460999 0.189121Q0.460751 0.176998 0.459751 0.173248L0.162758 0.173248ZM0.318501 0.252499Q0.318001 0.268749 0.309998 0.2845Q0.301998 0.300251 0.285999 0.310501Q0.27 0.320751 0.244751 0.320751Q0.219749 0.320751 0.202629 0.311001Q0.185509 0.30125 0.176506 0.285748Q0.167507 0.270248 0.166256 0.252499L0.318501 0.252499Z"/>
    <path id="dot" d="M5.76,0.48C4.76,0.48 3.91,0.13 3.2,-0.58 2.49,-1.29 2.14,-2.14 2.14,-3.14 2.14,-4.15 2.49,-5.02 3.2,-5.73 3.91,-6.44 4.76,-6.8 5.76,-6.8 6.77,-6.8 7.63,-6.44 8.34,-5.73 9.05,-5.02 9.4,-4.15 9.4,-3.14 9.4,-2.14 9.05,-1.29 8.34,-0.58 7.63,0.13 6.77,0.48 5.76,0.48z"/>
  </defs>
  <g transform="scale(0.85)">
  <g fill="#1f2328">
    <use href="#g97" transform="translate(1.96 30.88) scale(40 -40)"/>
    <use href="#g100" transform="translate(24.54 30.88) scale(40 -40)"/>
    <use href="#g100" transform="translate(46.88 30.88) scale(40 -40)"/>
    <use href="#g99" transform="translate(79.82 30.88) scale(40 -40)"/>
    <use href="#g111" transform="translate(96.86 30.88) scale(40 -40)"/>
    <use href="#g110" transform="translate(117.52 30.88) scale(40 -40)"/>
    <use href="#g116" transform="translate(139.48 30.88) scale(40 -40)"/>
    <use href="#g114" transform="translate(154.02 30.88) scale(40 -40)"/>
    <use href="#g111" transform="translate(169.88 30.88) scale(40 -40)"/>
    <use href="#g108" transform="translate(190.54 30.88) scale(40 -40)"/>
    <use href="#g108" transform="translate(200.54 30.88) scale(40 -40)"/>
    <use href="#g101" transform="translate(210.54 30.88) scale(40 -40)"/>
    <use href="#g114" transform="translate(230.46 30.88) scale(40 -40)"/>
    <use href="#dot" x="246.32" y="30.88" fill="#df3800"/>
  </g>
  </g>
</svg>
