<svg xmlns="http://www.w3.org/2000/svg" viewBox="0 0 960 1044" width="960" height="1044" role="img" aria-labelledby="diagram-title diagram-desc"><defs><path id="gl0" d="M0.255592 0.66L0.403915 0.66L0.664459 0L0.505142 0L0.457001 0.132633L0.203228 0.132633L0.154461 0L-0.005367 0L0.255592 0.66ZM0.252819 0.263546L0.407547 0.263546L0.330868 0.479954L0.329369 0.479954L0.252819 0.263546Z"/><path id="gl1" d="M0.191319 -0.208L0.041 -0.208L0.041 0.4105L0.192822 0.4105L0.192822 0.350639Q0.199913 0.364727 0.219593 0.381409Q0.239273 0.398094 0.270115 0.410297Q0.300961 0.422501 0.340046 0.422501Q0.399773 0.422501 0.442657 0.393066Q0.485546 0.363632 0.508617 0.314404Q0.531689 0.265179 0.531689 0.205002Q0.531689 0.144821 0.507164 0.095592Q0.482639 0.046368 0.438293 0.017181Q0.393951 -0.012001 0.334225 -0.012001Q0.291142 -0.012001 0.260708 0.003136Q0.230274 0.018272 0.21307 0.037136Q0.195866 0.056 0.191319 0.066631L0.191319 -0.208ZM0.38282 0.205002Q0.38282 0.233181 0.370296 0.255405Q0.357773 0.277634 0.336521 0.290428Q0.315273 0.303226 0.289001 0.303226Q0.261501 0.303226 0.23975 0.290291Q0.217999 0.277359 0.20541 0.255131Q0.192822 0.232906 0.192822 0.205002Q0.192822 0.177094 0.20541 0.154865Q0.217999 0.132641 0.23975 0.119957Q0.261501 0.107273 0.289001 0.107273Q0.315273 0.107273 0.336521 0.11982Q0.357773 0.132366 0.370296 0.154591Q0.38282 0.176819 0.38282 0.205002Z"/><path id="gl2" d="M0.193821 0L0.041546 0L0.041546 0.688L0.193821 0.688L0.193821 0Z"/><path id="gl3" d="M0.047226 0L0.047226 0.4105L0.198868 0.4105L0.198868 0L0.047226 0ZM0.124821 0.494858Q0.089142 0.494858 0.064182 0.52018Q0.039227 0.545502 0.039227 0.580452Q0.039227 0.615547 0.064251 0.641224Q0.089275 0.666904 0.124821 0.666904Q0.148369 0.666904 0.167934 0.655136Q0.1875 0.643368 0.199524 0.623932Q0.211548 0.6045 0.211548 0.580452Q0.211548 0.545502 0.186092 0.52018Q0.160641 0.494858 0.124821 0.494858Z"/><path id="gl4" d="M0.264679 0.107273Q0.293045 0.107273 0.311546 0.117111Q0.330048 0.126953 0.336407 0.133045L0.406094 0.029774Q0.397999 0.023273 0.378544 0.013226Q0.359093 0.003181 0.329842 -0.00441Q0.300594 -0.012001 0.263226 -0.012001Q0.192322 -0.012001 0.138977 0.014839Q0.085632 0.041679 0.055882 0.090542Q0.026134 0.139408 0.026134 0.205502Q0.026134 0.272095 0.055882 0.320637Q0.085632 0.369179 0.138977 0.39584Q0.192322 0.422501 0.263226 0.422501Q0.299866 0.422501 0.329067 0.414814Q0.358273 0.407131 0.378433 0.397224Q0.398594 0.387321 0.406593 0.380272L0.335594 0.276634Q0.33218 0.280048 0.322929 0.286411Q0.313679 0.292774 0.299179 0.298Q0.284679 0.303226 0.264679 0.303226Q0.240002 0.303226 0.218731 0.29052Q0.19746 0.277813 0.184525 0.255836Q0.171593 0.23386 0.171593 0.205502Q0.171593 0.177139 0.184525 0.154911Q0.19746 0.132687 0.218731 0.11998Q0.240002 0.107273 0.264679 0.107273Z"/><path id="gl5" d="M0.360275 0L0.360275 0.066631Q0.35582 0.056274 0.337749 0.037338Q0.319679 0.018406 0.289677 0.003201Q0.259678 -0.012001 0.219273 -0.012001Q0.159679 -0.012001 0.114613 0.017181Q0.069546 0.046368 0.044544 0.095592Q0.019547 0.144821 0.019547 0.205002Q0.019547 0.265179 0.044544 0.314404Q0.069546 0.363632 0.114613 0.393066Q0.159679 0.422501 0.219273 0.422501Q0.258228 0.422501 0.287022 0.41016Q0.315819 0.39782 0.334023 0.381134Q0.352226 0.364452 0.358822 0.350639L0.358822 0.4105L0.509819 0.4105L0.509819 0L0.360275 0ZM0.16864 0.205002Q0.16864 0.176819 0.181641 0.154591Q0.194641 0.132366 0.21632 0.11982Q0.237999 0.107273 0.264275 0.107273Q0.291775 0.107273 0.312908 0.119957Q0.334045 0.132641 0.346157 0.154865Q0.358273 0.177094 0.358273 0.205002Q0.358273 0.232906 0.346157 0.255131Q0.334045 0.277359 0.312908 0.290291Q0.291775 0.303226 0.264275 0.303226Q0.237999 0.303226 0.21632 0.290428Q0.194641 0.277634 0.181641 0.255405Q0.16864 0.233181 0.16864 0.205002Z"/><path id="gl6" d="M0.007225 0.4105L0.077087 0.4105L0.077087 0.578999L0.227272 0.578999L0.227272 0.4105L0.319546 0.4105L0.319546 0.285408L0.227272 0.285408L0.227272 0.171188Q0.227272 0.145687 0.234997 0.129936Q0.242725 0.114189 0.262455 0.114189Q0.276142 0.114189 0.285641 0.120003Q0.295139 0.12582 0.297142 0.12796L0.348999 0.02Q0.345413 0.016773 0.327274 0.008953Q0.309139 0.001133 0.281067 -0.005432Q0.252998 -0.012001 0.218548 -0.012001Q0.156952 -0.012001 0.11702 0.022747Q0.077087 0.057499 0.077087 0.130093L0.077087 0.285408L0.007225 0.285408L0.007225 0.4105Z"/><path id="gl7" d="M0.250999 -0.012001Q0.183727 -0.012001 0.131409 0.015724Q0.079094 0.043453 0.04932 0.092274Q0.019547 0.141094 0.019547 0.203999Q0.019547 0.266907 0.04932 0.316292Q0.079094 0.365681 0.131409 0.394089Q0.183727 0.422501 0.250999 0.422501Q0.318272 0.422501 0.369797 0.394089Q0.421322 0.365681 0.450481 0.316292Q0.479641 0.266907 0.479641 0.203999Q0.479641 0.141094 0.450481 0.092274Q0.421322 0.043453 0.369797 0.015724Q0.318272 -0.012001 0.250999 -0.012001ZM0.250999 0.113094Q0.27718 0.113094 0.296177 0.124615Q0.315178 0.136139 0.325588 0.156979Q0.335999 0.177822 0.335999 0.204727Q0.335999 0.231632 0.325588 0.252609Q0.315178 0.273586 0.296177 0.285496Q0.27718 0.297405 0.250999 0.297405Q0.224819 0.297405 0.20557 0.285496Q0.186321 0.273586 0.175659 0.252609Q0.165001 0.231632 0.165001 0.204727Q0.165001 0.177822 0.175659 0.156979Q0.186321 0.136139 0.20557 0.124615Q0.224819 0.113094 0.250999 0.113094Z"/><path id="gl8" d="M0.324322 0.422501Q0.367641 0.422501 0.40855 0.40509Q0.449463 0.38768 0.475979 0.349751Q0.502499 0.311821 0.502499 0.250454L0.502499 0L0.350227 0L0.350227 0.225407Q0.350227 0.269272 0.329227 0.291702Q0.308228 0.314133 0.274227 0.314133Q0.251678 0.314133 0.231815 0.302227Q0.211952 0.290321 0.199837 0.269226Q0.187725 0.248135 0.187725 0.220367L0.187725 0L0.035728 0L0.035728 0.4105L0.187725 0.4105L0.187725 0.35014Q0.193272 0.36668 0.212681 0.383362Q0.232094 0.400047 0.261318 0.411274Q0.290546 0.422501 0.324322 0.422501Z"/><path id="gl9" d="M0.137829 0L0.051498 0L0.051498 0.4105L0.137829 0.4105L0.137829 0.339664L0.135326 0.339664Q0.138165 0.352337 0.154079 0.371834Q0.169998 0.391335 0.198082 0.406918Q0.226166 0.422501 0.264828 0.422501Q0.293499 0.422501 0.315331 0.414749Q0.337166 0.407001 0.346001 0.399338L0.310501 0.327335Q0.303665 0.334335 0.285995 0.341751Q0.26833 0.349171 0.242664 0.349171Q0.209663 0.349171 0.186161 0.328583Q0.162663 0.307999 0.150246 0.279247Q0.137829 0.2505 0.137829 0.226002L0.137829 0Z"/><path id="gla" d="M0.242336 -0.012001Q0.179001 -0.012001 0.129833 0.016415Q0.080666 0.044834 0.052666 0.09375Q0.024666 0.142666 0.024666 0.203999Q0.024666 0.265335 0.052666 0.314919Q0.080666 0.364502 0.129833 0.393501Q0.179001 0.422501 0.242336 0.422501Q0.305664 0.422501 0.354332 0.393501Q0.403 0.364502 0.43058 0.314919Q0.458164 0.265335 0.458164 0.203999Q0.458164 0.142666 0.43058 0.09375Q0.403 0.044834 0.354332 0.016415Q0.305664 -0.012001 0.242336 -0.012001ZM0.242336 0.062664Q0.282501 0.062664 0.312336 0.081081Q0.342171 0.099499 0.358585 0.131668Q0.375 0.163837 0.375 0.204334Q0.375 0.244835 0.358585 0.277336Q0.342171 0.309837 0.312336 0.328835Q0.282501 0.347836 0.242336 0.347836Q0.202164 0.347836 0.172081 0.328835Q0.141998 0.309837 0.125332 0.277336Q0.108665 0.244835 0.108665 0.204334Q0.108665 0.163837 0.125332 0.131668Q0.141998 0.099499 0.172081 0.081081Q0.202164 0.062664 0.242336 0.062664Z"/><path id="glb" d="M0.134163 0.203663Q0.134163 0.139 0.161743 0.10083Q0.189327 0.062664 0.247002 0.062664Q0.305 0.062664 0.3325 0.10083Q0.360001 0.139 0.360001 0.203663L0.360001 0.4105L0.445999 0.4105L0.445999 0.191666Q0.445999 0.131664 0.422749 0.085663Q0.399502 0.039665 0.355164 0.013832Q0.310829 -0.012001 0.247002 -0.012001Q0.183662 -0.012001 0.139248 0.013832Q0.094837 0.039665 0.071587 0.085663Q0.048336 0.131664 0.048336 0.191666L0.048336 0.4105L0.134163 0.4105L0.134163 0.203663Z"/><path id="glc" d="M0.017666 0.4105L0.098164 0.4105L0.098164 0.578999L0.18433 0.578999L0.18433 0.4105L0.290001 0.4105L0.290001 0.335835L0.18433 0.335835L0.18433 0.133163Q0.18433 0.096828 0.197079 0.079994Q0.209827 0.063164 0.231327 0.063164Q0.250328 0.063164 0.260914 0.070164Q0.2715 0.077164 0.273499 0.079498L0.307827 0.015663Q0.304829 0.012836 0.291912 0.006001Q0.278999 -0.000835 0.258415 -0.006416Q0.237835 -0.012001 0.210663 -0.012001Q0.162663 -0.012001 0.130413 0.01733Q0.098164 0.046665 0.098164 0.110001L0.098164 0.335835L0.017666 0.335835L0.017666 0.4105Z"/><path id="gld" d="M0.106998 0.187469Q0.107735 0.150703 0.123169 0.120102Q0.138603 0.0895 0.169182 0.071484Q0.199764 0.053471 0.2449 0.053471Q0.28307 0.053471 0.30975 0.064751Q0.33643 0.076031 0.353363 0.091648Q0.370296 0.107265 0.377899 0.120205L0.420601 0.06757Q0.4039 0.043499 0.380135 0.025463Q0.356369 0.007431 0.322418 -0.002285Q0.288467 -0.012001 0.239735 -0.012001Q0.173397 -0.012001 0.125233 0.016232Q0.077072 0.044468 0.051018 0.094666Q0.024967 0.144867 0.024967 0.210133Q0.024967 0.270134 0.0495 0.318317Q0.074032 0.366501 0.120846 0.394501Q0.167664 0.422501 0.233467 0.422501Q0.294102 0.422501 0.338833 0.397301Q0.383564 0.372101 0.408215 0.325947Q0.432869 0.279797 0.432869 0.216202Q0.432869 0.21207 0.432552 0.201767Q0.432236 0.191467 0.431499 0.187469L0.106998 0.187469ZM0.350071 0.253204Q0.349438 0.273602 0.338253 0.297966Q0.327072 0.322334 0.302036 0.339981Q0.277 0.357632 0.23457 0.357632Q0.190601 0.357632 0.163868 0.340549Q0.137135 0.323467 0.124634 0.299282Q0.112133 0.275101 0.109867 0.253204L0.350071 0.253204Z"/><path id="gle" d="M0.206337 0.422501Q0.238499 0.422501 0.266331 0.416Q0.294163 0.4095 0.314331 0.400581Q0.334499 0.391663 0.342999 0.384663L0.308662 0.329498Q0.298328 0.338501 0.272495 0.349667Q0.246666 0.360836 0.214329 0.360836Q0.179329 0.360836 0.154827 0.347248Q0.130329 0.333664 0.130329 0.307335Q0.130329 0.281666 0.155663 0.266415Q0.181 0.251163 0.223663 0.241001Q0.2575 0.233002 0.287251 0.219582Q0.317001 0.206165 0.335499 0.182331Q0.354 0.158501 0.354 0.118835Q0.354 0.082836 0.338913 0.057751Q0.32383 0.032665 0.298412 0.017414Q0.272999 0.002163 0.241497 -0.004917Q0.209999 -0.012001 0.177338 -0.012001Q0.139336 -0.012001 0.108917 -0.004166Q0.078499 0.003666 0.057831 0.014332Q0.037163 0.025002 0.027336 0.033165L0.062164 0.095001Q0.075165 0.082329 0.104912 0.068329Q0.134663 0.054329 0.172337 0.054329Q0.214336 0.054329 0.240501 0.072083Q0.26667 0.089836 0.26667 0.1185Q0.26667 0.139999 0.254166 0.153Q0.241665 0.166 0.220665 0.174Q0.199665 0.181999 0.1745 0.187836Q0.150665 0.193665 0.12775 0.202663Q0.104836 0.211662 0.08625 0.22583Q0.067665 0.240002 0.056664 0.26067Q0.045666 0.281338 0.045666 0.309502Q0.045666 0.345001 0.068001 0.370167Q0.090336 0.395336 0.126999 0.408916Q0.163666 0.422501 0.206337 0.422501Z"/><path id="glf" d="M0.382336 0L0.382336 0.079838Q0.378666 0.067501 0.359413 0.045418Q0.340164 0.023335 0.306911 0.005665Q0.273663 -0.012001 0.228336 -0.012001Q0.171501 -0.012001 0.125248 0.014915Q0.078999 0.041836 0.05183 0.090668Q0.024666 0.1395 0.024666 0.205002Q0.024666 0.2705 0.05183 0.319332Q0.078999 0.368164 0.125248 0.395332Q0.171501 0.422501 0.228336 0.422501Q0.272999 0.422501 0.305832 0.406418Q0.338665 0.390335 0.35825 0.369415Q0.377834 0.348499 0.381664 0.3335L0.381664 0.4105L0.467663 0.4105L0.467663 0L0.382336 0ZM0.110329 0.205002Q0.110329 0.160664 0.129826 0.127995Q0.149326 0.095329 0.180664 0.077663Q0.212002 0.060001 0.247337 0.060001Q0.285664 0.060001 0.315662 0.077999Q0.345665 0.096001 0.362999 0.128666Q0.380337 0.161335 0.380337 0.205002Q0.380337 0.248665 0.362999 0.28133Q0.345665 0.313999 0.315662 0.332249Q0.285664 0.350498 0.247337 0.350498Q0.212002 0.350498 0.180664 0.332584Q0.149326 0.314671 0.129826 0.282001Q0.110329 0.249336 0.110329 0.205002Z"/><path id="glg" d="M0.282166 0.422501Q0.322327 0.422501 0.360577 0.405582Q0.398827 0.388664 0.423576 0.351913Q0.44833 0.315163 0.44833 0.256165L0.44833 0L0.360664 0L0.360664 0.238998Q0.360664 0.299999 0.332081 0.327747Q0.303501 0.355499 0.258663 0.355499Q0.228836 0.355499 0.20158 0.338665Q0.174328 0.321835 0.156994 0.292667Q0.139664 0.2635 0.139664 0.226665L0.139664 0L0.052666 0L0.052666 0.4105L0.139664 0.4105L0.139664 0.337337Q0.143829 0.354664 0.163826 0.3745Q0.183826 0.394337 0.214825 0.408417Q0.245827 0.422501 0.282166 0.422501Z"/><path id="glh" d="M0.233665 -0.012001Q0.176834 -0.012001 0.132168 0.014915Q0.087502 0.041836 0.061749 0.090668Q0.035999 0.1395 0.035999 0.205002Q0.035999 0.2705 0.061749 0.319332Q0.087502 0.368164 0.132168 0.395332Q0.176834 0.422501 0.233665 0.422501Q0.278835 0.422501 0.313416 0.40675Q0.348 0.390999 0.368584 0.370079Q0.389172 0.349163 0.391998 0.3335L0.391998 0.688L0.479664 0.688L0.479664 0L0.393501 0L0.393501 0.079838Q0.388172 0.063164 0.366421 0.04158Q0.344673 0.02 0.310505 0.003998Q0.276337 -0.012001 0.233665 -0.012001ZM0.253338 0.060001Q0.291664 0.060001 0.323162 0.077999Q0.354664 0.096001 0.373329 0.128666Q0.391998 0.161335 0.391998 0.205002Q0.391998 0.248665 0.373329 0.28133Q0.354664 0.313999 0.323162 0.332249Q0.291664 0.350498 0.253338 0.350498Q0.218334 0.350498 0.188416 0.332584Q0.158501 0.314671 0.140331 0.282001Q0.122166 0.249336 0.122166 0.205002Q0.122166 0.160664 0.140331 0.127995Q0.158501 0.095329 0.188416 0.077663Q0.218334 0.060001 0.253338 0.060001Z"/><path id="gli" d="M0.285164 0.422501Q0.325329 0.422501 0.363579 0.405582Q0.401829 0.388664 0.426579 0.351913Q0.451328 0.315163 0.451328 0.256165L0.451328 0L0.363663 0L0.363663 0.238998Q0.363663 0.299999 0.335747 0.327747Q0.307835 0.355499 0.263 0.355499Q0.233166 0.355499 0.205582 0.338665Q0.178001 0.321835 0.160332 0.292667Q0.142666 0.2635 0.142666 0.226665L0.142666 0L0.054665 0L0.054665 0.688L0.142666 0.688L0.142666 0.337337Q0.146828 0.354664 0.166664 0.3745Q0.186501 0.394337 0.217499 0.408417Q0.248501 0.422501 0.285164 0.422501Z"/><path id="glj" d="M0.143002 0L0.055336 0L0.055336 0.688L0.143002 0.688L0.143002 0Z"/><path id="glk" d="M0.042633 0.66L0.282452 0.66Q0.345882 0.66 0.396988 0.637684Q0.448093 0.615368 0.478367 0.570297Q0.50864 0.525227 0.50864 0.457001Q0.50864 0.389275 0.478367 0.342022Q0.448093 0.294773 0.396988 0.270161Q0.345882 0.245548 0.282452 0.245548L0.191959 0.245548L0.191959 0L0.042633 0L0.042633 0.66ZM0.191959 0.363728L0.241001 0.363728Q0.27132 0.363728 0.295727 0.372501Q0.320133 0.381275 0.334564 0.401089Q0.348999 0.420906 0.348999 0.453476Q0.348999 0.48632 0.334564 0.505589Q0.320133 0.52486 0.295727 0.533337Q0.27132 0.541813 0.241001 0.541813L0.191959 0.541813L0.191959 0.363728Z"/><path id="gll" d="M0.180775 0L0.029045 0L0.029045 0.4105L0.180775 0.4105L0.180775 0.346954L0.178272 0.346954Q0.182686 0.358643 0.198204 0.376366Q0.213726 0.394093 0.241611 0.408295Q0.269501 0.422501 0.310143 0.422501Q0.338413 0.422501 0.362411 0.413864Q0.386414 0.405228 0.397415 0.396774L0.338272 0.273361Q0.331642 0.282131 0.313778 0.291222Q0.295914 0.300312 0.269455 0.300312Q0.238819 0.300312 0.219158 0.284946Q0.199501 0.269585 0.190136 0.247631Q0.180775 0.225681 0.180775 0.205906L0.180775 0Z"/><path id="glm" d="M0.140499 -0.208L0.054001 -0.208L0.054001 0.4105L0.141998 0.4105L0.141998 0.3335Q0.146328 0.349163 0.166996 0.370079Q0.187664 0.390999 0.222244 0.40675Q0.256828 0.422501 0.301826 0.422501Q0.359001 0.422501 0.403164 0.395332Q0.447327 0.368164 0.472664 0.319332Q0.498001 0.2705 0.498001 0.205002Q0.498001 0.1395 0.472 0.090668Q0.445999 0.041836 0.401161 0.014915Q0.356327 -0.012001 0.299164 -0.012001Q0.252327 -0.012001 0.217663 0.005497Q0.182999 0.022999 0.16333 0.044918Q0.143665 0.066837 0.140499 0.079838L0.140499 -0.208ZM0.41217 0.205002Q0.41217 0.249336 0.393833 0.282001Q0.3755 0.314671 0.345581 0.332584Q0.315662 0.350498 0.280334 0.350498Q0.242001 0.350498 0.210499 0.332249Q0.179001 0.313999 0.1605 0.28133Q0.141998 0.248665 0.141998 0.205002Q0.141998 0.161335 0.1605 0.128666Q0.179001 0.096001 0.210499 0.077999Q0.242001 0.060001 0.280334 0.060001Q0.315662 0.060001 0.345581 0.077663Q0.3755 0.095329 0.393833 0.127995Q0.41217 0.160664 0.41217 0.205002Z"/><path id="gln" d="M0.062 0L0.062 0.4105L0.148827 0.4105L0.148827 0L0.062 0ZM0.106499 0.550999Q0.082836 0.550999 0.06625 0.567749Q0.049664 0.584499 0.049664 0.607838Q0.049664 0.6315 0.066414 0.648418Q0.083164 0.665337 0.106499 0.665337Q0.122166 0.665337 0.13533 0.657501Q0.148499 0.649666 0.156582 0.636833Q0.164665 0.624001 0.164665 0.607838Q0.164665 0.584499 0.147583 0.567749Q0.130501 0.550999 0.106499 0.550999Z"/><path id="glo" d="M0.248665 -0.219337Q0.200165 -0.219337 0.160831 -0.209335Q0.121502 -0.199337 0.092331 -0.181168Q0.063164 -0.162998 0.045502 -0.138664L0.102501 -0.084Q0.112164 -0.097 0.128414 -0.111748Q0.144665 -0.126499 0.172665 -0.136917Q0.200665 -0.147335 0.245499 -0.147335Q0.289337 -0.147335 0.319836 -0.128666Q0.350334 -0.110001 0.366333 -0.077999Q0.382336 -0.046001 0.382336 -0.006001L0.382336 0.007336L0.467663 0.007336L0.467663 -0.011665Q0.467663 -0.079334 0.438332 -0.125668Q0.409 -0.172001 0.359417 -0.195667Q0.309837 -0.219337 0.248665 -0.219337ZM0.382336 0L0.382336 0.079838Q0.378666 0.067501 0.359413 0.045418Q0.340164 0.023335 0.306911 0.005665Q0.273663 -0.012001 0.228336 -0.012001Q0.171501 -0.012001 0.125248 0.014915Q0.078999 0.041836 0.05183 0.090668Q0.024666 0.1395 0.024666 0.205002Q0.024666 0.2705 0.05183 0.319332Q0.078999 0.368164 0.125248 0.395332Q0.171501 0.422501 0.228336 0.422501Q0.272999 0.422501 0.305832 0.406418Q0.338665 0.390335 0.35825 0.369415Q0.377834 0.348499 0.381664 0.3335L0.381664 0.4105L0.467663 0.4105L0.467663 0L0.382336 0ZM0.110329 0.205002Q0.110329 0.160664 0.129826 0.127995Q0.149326 0.095329 0.180664 0.077663Q0.212002 0.060001 0.247337 0.060001Q0.285664 0.060001 0.315662 0.077999Q0.345665 0.096001 0.362999 0.128666Q0.380337 0.161335 0.380337 0.205002Q0.380337 0.248665 0.362999 0.28133Q0.345665 0.313999 0.315662 0.332249Q0.285664 0.350498 0.247337 0.350498Q0.212002 0.350498 0.180664 0.332584Q0.149326 0.314671 0.129826 0.282001Q0.110329 0.249336 0.110329 0.205002Z"/><path id="glp" d="M0.129337 0.125664Q0.16 0.125664 0.181664 0.10408Q0.203327 0.0825 0.203327 0.045837Q0.203327 0.008999 0.188412 -0.024418Q0.1735 -0.057835 0.149082 -0.084Q0.124664 -0.110165 0.096165 -0.125664L0.063335 -0.092163Q0.078499 -0.084835 0.095917 -0.071915Q0.113335 -0.058998 0.127499 -0.042248Q0.141663 -0.025501 0.146336 -0.006336Q0.135666 -0.011837 0.120663 -0.011837Q0.095165 -0.011501 0.076664 0.007668Q0.058163 0.026836 0.058163 0.054337Q0.058163 0.075001 0.067581 0.09108Q0.077 0.107162 0.093166 0.116413Q0.109337 0.125664 0.129337 0.125664Z"/><path id="glq" d="M0.544998 0.422501Q0.590664 0.422501 0.623081 0.402748Q0.655499 0.382999 0.672749 0.342415Q0.689999 0.301834 0.689999 0.238834L0.689999 0L0.604164 0L0.604164 0.221336Q0.604164 0.288174 0.585663 0.321503Q0.567165 0.354836 0.518002 0.354836Q0.492001 0.354836 0.468163 0.340584Q0.444328 0.326336 0.429245 0.296917Q0.414165 0.267502 0.414165 0.221336L0.414165 0L0.333 0L0.333 0.221336Q0.333 0.288174 0.310081 0.321503Q0.287163 0.354836 0.245499 0.354836Q0.219166 0.354836 0.195747 0.341084Q0.172329 0.327335 0.157829 0.297916Q0.14333 0.268501 0.14333 0.221336L0.14333 0L0.056999 0L0.056999 0.4105L0.14333 0.4105L0.14333 0.347664Q0.148827 0.363163 0.167244 0.380497Q0.185665 0.397835 0.214413 0.410168Q0.243164 0.422501 0.278328 0.422501Q0.315662 0.422501 0.34058 0.407417Q0.365501 0.392338 0.380001 0.370586Q0.394501 0.348835 0.400002 0.328835Q0.407166 0.350662 0.427162 0.37225Q0.447163 0.393837 0.477493 0.408169Q0.507828 0.422501 0.544998 0.422501Z"/><path id="glr" d="M0.246162 0.060001Q0.285164 0.060001 0.309082 0.072498Q0.333 0.084999 0.339165 0.0905L0.381664 0.028Q0.376335 0.023663 0.357666 0.013912Q0.339001 0.004166 0.30975 -0.003918Q0.280499 -0.012001 0.243336 -0.012001Q0.187 -0.012001 0.13858 0.013168Q0.090164 0.038338 0.060413 0.087002Q0.030663 0.135666 0.030663 0.205502Q0.030663 0.275837 0.060413 0.324085Q0.090164 0.372337 0.13858 0.397419Q0.187 0.422501 0.243336 0.422501Q0.280163 0.422501 0.308582 0.41383Q0.337002 0.405163 0.355583 0.394661Q0.374165 0.384163 0.380001 0.378502L0.337166 0.315838Q0.333164 0.319836 0.321751 0.328167Q0.310337 0.336498 0.2915 0.343498Q0.272663 0.350498 0.246162 0.350498Q0.214001 0.350498 0.183662 0.333168Q0.153328 0.315838 0.133995 0.283417Q0.114666 0.250999 0.114666 0.205502Q0.114666 0.16 0.133995 0.127331Q0.153328 0.094666 0.183662 0.077332Q0.214001 0.060001 0.246162 0.060001Z"/><path id="gls" d="M0.036663 0.4105L0.394665 0.4105L0.149162 0.065826L0.384327 0.065826L0.384327 0L0.008499 0L0.254002 0.344837L0.036663 0.344837L0.036663 0.4105Z"/><path id="glt" d="M0.282139 0.672001Q0.343273 0.672001 0.389481 0.658524Q0.435688 0.645046 0.463638 0.629955Q0.491592 0.614868 0.497501 0.609772L0.425499 0.489407Q0.417641 0.495678 0.398228 0.506973Q0.378819 0.518272 0.35268 0.527313Q0.326546 0.536358 0.29818 0.536358Q0.259548 0.536358 0.235775 0.522766Q0.212002 0.509178 0.212002 0.481861Q0.212002 0.463322 0.224709 0.44875Q0.237415 0.434181 0.263706 0.42075Q0.290001 0.407322 0.33046 0.391907Q0.367321 0.378593 0.399868 0.360092Q0.432415 0.341595 0.457302 0.316296Q0.482189 0.291 0.496552 0.257999Q0.510914 0.224998 0.510914 0.182819Q0.510914 0.132866 0.490341 0.096092Q0.469772 0.059319 0.43457 0.035385Q0.399368 0.011452 0.354797 -0.000275Q0.310226 -0.012001 0.262226 -0.012001Q0.194046 -0.012001 0.14027 0.00359Q0.086498 0.01918 0.053429 0.036976Q0.020359 0.054775 0.013859 0.061142L0.088726 0.186642Q0.094501 0.181999 0.111797 0.17207Q0.129093 0.16214 0.153957 0.151344Q0.178822 0.140549 0.207138 0.133003Q0.235455 0.125462 0.262905 0.125462Q0.309002 0.125462 0.331978 0.143116Q0.354954 0.160774 0.354954 0.189907Q0.354954 0.211727 0.340454 0.228565Q0.325954 0.245407 0.297024 0.260769Q0.268093 0.276134 0.224453 0.293133Q0.181225 0.31068 0.14336 0.335476Q0.105499 0.360275 0.082047 0.397888Q0.058594 0.435501 0.058594 0.49086Q0.058594 0.546547 0.089867 0.587181Q0.12114 0.627819 0.17223 0.64991Q0.22332 0.672001 0.282139 0.672001Z"/><path id="glu" d="M0.327915 0.422501Q0.371227 0.422501 0.412136 0.40509Q0.453049 0.38768 0.479568 0.349751Q0.506092 0.311821 0.506092 0.250454L0.506092 0L0.353821 0L0.353821 0.225407Q0.353821 0.269272 0.334274 0.291702Q0.314728 0.314133 0.280727 0.314133Q0.258179 0.314133 0.237587 0.302227Q0.216999 0.290321 0.204159 0.269226Q0.191319 0.248135 0.191319 0.220367L0.191319 0L0.038906 0L0.038906 0.688L0.191319 0.688L0.191319 0.35014Q0.196869 0.36668 0.216206 0.383362Q0.235546 0.400047 0.264771 0.411274Q0.293999 0.422501 0.327915 0.422501Z"/><path id="glv" d="M0.162758 0.173248Q0.164509 0.151001 0.176884 0.133873Q0.189259 0.116749 0.211502 0.107124Q0.233749 0.0975 0.2645 0.0975Q0.293251 0.0975 0.316624 0.103374Q0.34 0.109249 0.35725 0.118374Q0.3745 0.127499 0.383751 0.137001L0.442749 0.042999Q0.430248 0.029499 0.407623 0.016872Q0.384998 0.00425 0.348 -0.003876Q0.311001 -0.012001 0.254501 -0.012001Q0.186249 -0.012001 0.133247 0.0135Q0.08025 0.039001 0.049999 0.088623Q0.019749 0.138248 0.019749 0.209751Q0.019749 0.269749 0.045998 0.317997Q0.07225 0.366249 0.122124 0.394375Q0.172001 0.422501 0.2425 0.422501Q0.309502 0.422501 0.358624 0.397999Q0.407749 0.373501 0.434498 0.325249Q0.46125 0.277 0.46125 0.20525Q0.46125 0.201248 0.460999 0.189121Q0.460751 0.176998 0.459751 0.173248L0.162758 0.173248ZM0.318501 0.252499Q0.318001 0.268749 0.309998 0.2845Q0.301998 0.300251 0.285999 0.310501Q0.27 0.320751 0.244751 0.320751Q0.219749 0.320751 0.202629 0.311001Q0.185509 0.30125 0.176506 0.285748Q0.167507 0.270248 0.166256 0.252499L0.318501 0.252499Z"/><path id="glw" d="M0.217907 -0.012001Q0.158321 -0.012001 0.114338 0.017181Q0.070358 0.046368 0.046089 0.095592Q0.02182 0.144821 0.02182 0.205002Q0.02182 0.265179 0.046089 0.314404Q0.070358 0.363632 0.114338 0.393066Q0.158321 0.422501 0.217907 0.422501Q0.257359 0.422501 0.287907 0.410297Q0.318455 0.398094 0.337364 0.381409Q0.356274 0.364727 0.36068 0.350639L0.36068 0.688L0.512367 0.688L0.512367 0L0.362179 0L0.362179 0.066631Q0.352314 0.048 0.33086 0.029861Q0.309406 0.011726 0.280361 -0.000137Q0.25132 -0.012001 0.217907 -0.012001ZM0.264366 0.107273Q0.291866 0.107273 0.31361 0.119957Q0.335358 0.132641 0.348019 0.154865Q0.36068 0.177094 0.36068 0.205002Q0.36068 0.232906 0.348019 0.255131Q0.335358 0.277359 0.31361 0.290291Q0.291866 0.303226 0.264366 0.303226Q0.238228 0.303226 0.216976 0.290428Q0.195728 0.277634 0.183273 0.255405Q0.170822 0.233181 0.170822 0.205002Q0.170822 0.176819 0.183273 0.154591Q0.195728 0.132366 0.216976 0.11982Q0.238228 0.107273 0.264366 0.107273Z"/><path id="glx" d="M0.050663 0L0.050663 0.688L0.138329 0.688L0.138329 0.3335Q0.141499 0.349163 0.161911 0.370079Q0.182327 0.390999 0.216995 0.40675Q0.251663 0.422501 0.296665 0.422501Q0.353828 0.422501 0.398415 0.395332Q0.443001 0.368164 0.468662 0.319332Q0.494328 0.2705 0.494328 0.205002Q0.494328 0.1395 0.468662 0.090668Q0.443001 0.041836 0.398415 0.014915Q0.353828 -0.012001 0.296665 -0.012001Q0.254166 -0.012001 0.219913 0.003998Q0.185665 0.02 0.163994 0.04158Q0.142326 0.063164 0.136829 0.079838L0.136829 0L0.050663 0ZM0.408173 0.205002Q0.408173 0.249336 0.390003 0.282001Q0.371838 0.314671 0.342087 0.332584Q0.312336 0.350498 0.277 0.350498Q0.238663 0.350498 0.207161 0.332249Q0.175663 0.313999 0.156994 0.28133Q0.138329 0.248665 0.138329 0.205002Q0.138329 0.161335 0.156994 0.128666Q0.175663 0.096001 0.207161 0.077999Q0.238663 0.060001 0.277 0.060001Q0.312336 0.060001 0.342087 0.077663Q0.371838 0.095329 0.390003 0.127995Q0.408173 0.160664 0.408173 0.205002Z"/><path id="gly" d="M0.223 0.079327L0.361336 0.4105L0.448666 0.4105L0.171665 -0.208L0.083336 -0.208L0.176662 0L0.007336 0.4105L0.096001 0.4105L0.223 0.079327Z"/><path id="glz" d="M0.717461 0L0.537868 0L0.426228 0.460266L0.452774 0.460266L0.340775 0L0.160454 0L0.009773 0.66L0.181366 0.66L0.260818 0.196819L0.258865 0.196819L0.382954 0.66L0.495689 0.66L0.619915 0.196819L0.617821 0.196819L0.697414 0.66L0.869007 0.66L0.717461 0Z"/><path id="gl10" d="M0.358093 0.237766L0.262592 0L0.122952 0L-0.012772 0.4105L0.148273 0.4105L0.213772 0.162594L0.308273 0.4025L0.408272 0.4025L0.501549 0.162594L0.567688 0.4105L0.729095 0.4105L0.593735 0L0.454453 0L0.358093 0.237766Z"/><path id="gl11" d="M0.226227 0.422501Q0.266273 0.422501 0.29982 0.415703Q0.333366 0.408905 0.356091 0.400387Q0.378819 0.391869 0.385548 0.386631L0.336048 0.297001Q0.3265 0.304226 0.300861 0.314999Q0.275227 0.325775 0.243679 0.325775Q0.219322 0.325775 0.202797 0.318588Q0.186272 0.311405 0.186272 0.295906Q0.186272 0.280682 0.204613 0.271339Q0.222954 0.262001 0.257545 0.25518Q0.28764 0.248955 0.318569 0.235931Q0.349499 0.222908 0.370361 0.197792Q0.391228 0.17268 0.391228 0.130455Q0.391228 0.087368 0.372501 0.059525Q0.353775 0.031681 0.323433 0.016136Q0.293095 0.000595 0.257458 -0.005703Q0.221821 -0.012001 0.188366 -0.012001Q0.141499 -0.012001 0.106747 -0.003475Q0.071999 0.005047 0.050545 0.015911Q0.029095 0.026775 0.020634 0.033367L0.069454 0.133415Q0.082455 0.122322 0.111912 0.108616Q0.141369 0.094913 0.1745 0.094913Q0.206451 0.094913 0.223949 0.104389Q0.241451 0.113869 0.241451 0.129726Q0.241451 0.141773 0.233089 0.149452Q0.224728 0.157131 0.209045 0.162476Q0.193367 0.16782 0.171547 0.172272Q0.151455 0.176727 0.128929 0.185135Q0.106407 0.193546 0.086544 0.208202Q0.066681 0.222858 0.054203 0.245495Q0.041725 0.268131 0.041725 0.300045Q0.041725 0.340866 0.067997 0.368Q0.094273 0.395134 0.136456 0.408817Q0.178642 0.422501 0.226227 0.422501Z"/><path id="gl12" d="M0.046906 0.66L0.196365 0.66L0.196365 0L0.046906 0L0.046906 0.66Z"/><path id="gl13" d="M0.175999 0.330502Q0.175999 0.274139 0.199249 0.228252Q0.2225 0.182365 0.263798 0.155365Q0.305096 0.128368 0.359367 0.128368Q0.414131 0.128368 0.455357 0.155365Q0.496586 0.182365 0.519699 0.228252Q0.542812 0.274139 0.542812 0.330502Q0.542812 0.38686 0.519699 0.432495Q0.496586 0.478134 0.455357 0.505245Q0.414131 0.53236 0.359367 0.53236Q0.305096 0.53236 0.263798 0.505245Q0.2225 0.478134 0.199249 0.432495Q0.175999 0.38686 0.175999 0.330502ZM0.020367 0.330502Q0.020367 0.4025 0.045998 0.464748Q0.071632 0.527 0.117611 0.573498Q0.163593 0.619999 0.225479 0.646Q0.287369 0.672001 0.359367 0.672001Q0.432594 0.672001 0.494343 0.646Q0.556095 0.619999 0.601887 0.573498Q0.647678 0.527 0.672886 0.464748Q0.698093 0.4025 0.698093 0.330502Q0.698093 0.257999 0.673431 0.195747Q0.648773 0.133499 0.60334 0.08675Q0.557907 0.040001 0.495975 0.014Q0.434048 -0.012001 0.359367 -0.012001Q0.283367 -0.012001 0.221115 0.014Q0.158867 0.040001 0.113979 0.08675Q0.069096 0.133499 0.044731 0.195747Q0.020367 0.257999 0.020367 0.330502Z"/><path id="gl14" d="M0.390869 0.13596Q0.436775 0.13596 0.474567 0.149414Q0.51236 0.162868 0.530907 0.175915L0.594868 0.049Q0.571548 0.028999 0.514797 0.008499Q0.458046 -0.012001 0.380047 -0.012001Q0.307049 -0.012001 0.243069 0.013588Q0.179092 0.039181 0.130207 0.085388Q0.081322 0.131596 0.053772 0.193707Q0.026226 0.255821 0.026226 0.328999Q0.026226 0.40218 0.053703 0.46479Q0.081181 0.527405 0.129887 0.57386Q0.178593 0.620319 0.242821 0.64616Q0.307049 0.672001 0.380047 0.672001Q0.458046 0.672001 0.514797 0.651501Q0.571548 0.631001 0.594868 0.611L0.530907 0.484085Q0.51236 0.497272 0.474567 0.510654Q0.436775 0.52404 0.390869 0.52404Q0.339954 0.52404 0.302025 0.508221Q0.264095 0.492405 0.23864 0.465042Q0.213188 0.437679 0.200642 0.402977Q0.188095 0.368275 0.188095 0.330502Q0.188095 0.292225 0.200642 0.257271Q0.213188 0.222321 0.23864 0.194958Q0.264095 0.167595 0.302025 0.151775Q0.339954 0.13596 0.390869 0.13596Z"/><path id="gl15" d="M0.045547 0.66L0.195225 0.66L0.195225 0.130913L0.434639 0.130913L0.434639 0L0.045547 0L0.045547 0.66Z"/><path id="gl16" d="M0.185772 0.220406Q0.185772 0.171501 0.204296 0.142296Q0.22282 0.113094 0.266499 0.113094Q0.310905 0.113094 0.32925 0.142296Q0.347595 0.171501 0.347595 0.220406L0.347595 0.4105L0.497414 0.4105L0.497414 0.204273Q0.497414 0.138367 0.470318 0.089706Q0.443226 0.041046 0.391701 0.014523Q0.340179 -0.012001 0.266499 -0.012001Q0.193321 -0.012001 0.141911 0.014523Q0.0905 0.041046 0.063408 0.089706Q0.03632 0.138367 0.03632 0.204273L0.03632 0.4105L0.185772 0.4105L0.185772 0.220406Z"/><path id="gl17" d="M0.351734 0.220322L0.526188 0L0.357407 0L0.260414 0.126499L0.163319 0L0.006546 0L0.180725 0.208679L0.023952 0.4105L0.193821 0.4105L0.269867 0.305L0.349453 0.4105L0.503319 0.4105L0.351734 0.220322Z"/><path id="gl18" d="M0.055336 0.66L0.445663 0.66L0.445663 0.582672L0.140163 0.582672L0.140163 0.368664L0.439335 0.368664L0.439335 0.293171L0.140163 0.293171L0.140163 0.077328L0.445663 0.077328L0.445663 0L0.055336 0L0.055336 0.66Z"/><path id="gl19" d="M0.014 0.4105L0.098 0.4105L0.098 0.526836Q0.098 0.5895 0.119747 0.627419Q0.141499 0.665337 0.175167 0.682667Q0.208836 0.700001 0.244335 0.700001Q0.287498 0.700001 0.310749 0.68808Q0.334 0.676163 0.338665 0.671837L0.303665 0.605671Q0.300835 0.608673 0.287998 0.616585Q0.275166 0.6245 0.252335 0.6245Q0.236 0.6245 0.220413 0.616501Q0.204826 0.608501 0.194496 0.585499Q0.184166 0.5625 0.184166 0.517162L0.184166 0.4105L0.300999 0.4105L0.300999 0.33617L0.184166 0.33617L0.184166 0L0.098 0L0.098 0.33617L0.014 0.33617L0.014 0.4105Z"/><path id="gl1a" d="M0.145664 -0.012001Q0.118 -0.012001 0.098335 0.007668Q0.078671 0.027336 0.078671 0.055Q0.078671 0.0835 0.098335 0.103165Q0.118 0.122829 0.145664 0.122829Q0.173836 0.122829 0.193501 0.103165Q0.213165 0.0835 0.213165 0.055Q0.213165 0.027336 0.193501 0.007668Q0.173836 -0.012001 0.145664 -0.012001Z"/></defs><title id="diagram-title">Protocol and transport architecture</title><desc id="diagram-desc">Application - routes and handlers; Protocol - parsing, semantics, serialization; Shared contract - messages, byte sources, channel intent; Windows transport - IOCP; Linux transport - epoll. Bidirectional connections: Application to Protocol, Protocol to Shared contract, Shared contract to Windows transport, and Shared contract to Linux transport.</desc><metadata id="source-mermaid">flowchart TB
    A["Application - routes and handlers"]
    P["Protocol - parsing, semantics, serialization"]
    C["Shared contract - messages, byte sources, channel intent"]
    W["Windows transport - IOCP"]
    L["Linux transport - epoll"]
    A &lt;--&gt; P
    P &lt;--&gt; C
    C &lt;--&gt; W
    C &lt;--&gt; L
</metadata><rect width="960" height="1044" fill="#101720"/><g id="node-A" role="group" aria-label="Application - routes and handlers"><rect x="48" y="48" width="864" height="136" rx="16" fill="#172330" stroke="#2a3747" stroke-width="2"/><g role="img" aria-label="Application" data-weight="700" fill="rgb(237, 243, 251)" fill-rule="nonzero"><g transform="translate(80 103) scale(42 -42)"><use href="#gl0"/><use href="#gl1" x="0.675223"/><use href="#gl1" x="1.241443"/><use href="#gl2" x="1.807292"/><use href="#gl3" x="2.057292"/><use href="#gl4" x="2.319196"/><use href="#gl5" x="2.745164"/><use href="#gl6" x="3.309896"/><use href="#gl3" x="3.673363"/><use href="#gl7" x="3.935268"/><use href="#gl8" x="4.451637"/></g></g><g role="img" aria-label="routes and handlers" data-weight="400" fill="rgb(164, 180, 201)" fill-rule="nonzero"><g transform="translate(80 150) scale(38 -38)"><use href="#gl9"/><use href="#gla" x="0.340461"/><use href="#glb" x="0.842105"/><use href="#glc" x="1.349507"/><use href="#gld" x="1.68051"/><use href="#gle" x="2.157072"/><use href="#glf" x="2.808799"/><use href="#glg" x="3.340461"/><use href="#glh" x="3.850329"/><use href="#gli" x="4.623766"/><use href="#glf" x="5.140625"/><use href="#glg" x="5.671875"/><use href="#glh" x="6.182155"/><use href="#glj" x="6.706003"/><use href="#gld" x="6.921464"/><use href="#gl9" x="7.398026"/><use href="#gle" x="7.741365"/></g></g></g><g id="edge-A-P" data-from="A" data-to="P" data-direction="bidirectional" aria-label="Application to Protocol, bidirectional"><path d="M480 202V234" stroke="#a4b4c9" stroke-width="4" fill="none"/><path d="M472 208L480 196L488 208Z" fill="#a4b4c9"/><path d="M472 228L480 240L488 228Z" fill="#a4b4c9"/></g><g id="node-P" role="group" aria-label="Protocol - parsing, semantics, serialization"><rect x="48" y="252" width="864" height="152" rx="16" fill="#172330" stroke="#2a3747" stroke-width="2"/><g role="img" aria-label="Protocol" data-weight="700" fill="rgb(237, 243, 251)" fill-rule="nonzero"><g transform="translate(80 310) scale(42 -42)"><use href="#glk"/><use href="#gll" x="0.532738"/><use href="#gl7" x="0.918527"/><use href="#gl6" x="1.434896"/><use href="#gl7" x="1.798363"/><use href="#gl4" x="2.314732"/><use href="#gl7" x="2.741071"/><use href="#gl2" x="3.25744"/></g></g><g role="img" aria-label="parsing, semantics, serialization" data-weight="400" fill="rgb(164, 180, 201)" fill-rule="nonzero"><g transform="translate(80 361) scale(38 -38)"><use href="#glm"/><use href="#glf" x="0.535773"/><use href="#gl9" x="1.067434"/><use href="#gle" x="1.410773"/><use href="#gln" x="1.813322"/><use href="#glg" x="2.042763"/><use href="#glo" x="2.552632"/><use href="#glp" x="3.087993"/><use href="#gle" x="3.613898"/><use href="#gld" x="4.016447"/><use href="#glq" x="4.492599"/><use href="#glf" x="5.250411"/><use href="#glg" x="5.781661"/><use href="#glc" x="6.291941"/><use href="#gln" x="6.622944"/><use href="#glr" x="6.852385"/><use href="#gle" x="7.264391"/><use href="#glp" x="7.666941"/><use href="#gle" x="8.192845"/><use href="#gld" x="8.595395"/><use href="#gl9" x="9.071957"/><use href="#gln" x="9.421875"/><use href="#glf" x="9.651316"/><use href="#glj" x="10.182977"/><use href="#gln" x="10.398438"/><use href="#gls" x="10.627878"/><use href="#glf" x="11.048931"/><use href="#glc" x="11.580181"/><use href="#gln" x="11.911184"/><use href="#gla" x="12.140625"/><use href="#glg" x="12.64227"/></g></g></g><g id="edge-P-C" data-from="P" data-to="C" data-direction="bidirectional" aria-label="Protocol to Shared contract, bidirectional"><path d="M480 422V454" stroke="#a4b4c9" stroke-width="4" fill="none"/><path d="M472 428L480 416L488 428Z" fill="#a4b4c9"/><path d="M472 448L480 460L488 448Z" fill="#a4b4c9"/></g><g id="node-C" role="group" aria-label="Shared contract - messages, byte sources, channel intent"><rect x="48" y="472" width="864" height="184" rx="16" fill="#30221e" stroke="#ff6b38" stroke-width="2"/><g role="img" aria-label="Shared contract" data-weight="700" fill="rgb(255, 107, 56)" fill-rule="nonzero"><g transform="translate(80 530) scale(42 -42)"><use href="#glt"/><use href="#glu" x="0.559152"/><use href="#gl5" x="1.113467"/><use href="#gll" x="1.677827"/><use href="#glv" x="2.063244"/><use href="#glw" x="2.561384"/><use href="#gl4" x="3.385045"/><use href="#gl7" x="3.811012"/><use href="#gl8" x="4.327381"/><use href="#gl6" x="4.876488"/><use href="#gll" x="5.239955"/><use href="#gl5" x="5.625372"/><use href="#gl4" x="6.190104"/><use href="#gl6" x="6.611979"/></g></g><g role="img" aria-label="messages, byte sources," data-weight="400" fill="rgb(237, 243, 251)" fill-rule="nonzero"><g transform="translate(80 580) scale(38 -38)"><use href="#glq"/><use href="#gld" x="0.757401"/><use href="#gle" x="1.233964"/><use href="#gle" x="1.636102"/><use href="#glf" x="2.038651"/><use href="#glo" x="2.570313"/><use href="#gld" x="3.105263"/><use href="#gle" x="3.581826"/><use href="#glp" x="3.984375"/><use href="#glx" x="4.51028"/><use href="#gly" x="5.034128"/><use href="#glc" x="5.496299"/><use href="#gld" x="5.827303"/><use href="#gle" x="6.553454"/><use href="#gla" x="6.955592"/><use href="#glb" x="7.457237"/><use href="#gl9" x="7.96875"/><use href="#glr" x="8.309622"/><use href="#gld" x="8.724507"/><use href="#gle" x="9.201069"/><use href="#glp" x="9.603618"/></g></g><g role="img" aria-label="channel intent" data-weight="400" fill="rgb(237, 243, 251)" fill-rule="nonzero"><g transform="translate(80 623) scale(38 -38)"><use href="#glr"/><use href="#gli" x="0.414885"/><use href="#glf" x="0.931332"/><use href="#glg" x="1.462993"/><use href="#glg" x="1.972862"/><use href="#gld" x="2.48273"/><use href="#glj" x="2.959293"/><use href="#gln" x="3.424342"/><use href="#glg" x="3.653783"/><use href="#glc" x="4.163651"/><use href="#gld" x="4.494655"/><use href="#glg" x="4.971217"/><use href="#glc" x="5.481497"/></g></g></g><g id="edge-C-W" data-from="C" data-to="W" data-direction="bidirectional" aria-label="Shared contract to Windows transport, bidirectional"><path d="M256 676V744" stroke="#ff6b38" stroke-width="4" fill="none"/><path d="M248 682L256 670L264 682Z" fill="#ff6b38"/><path d="M248 738L256 750L264 738Z" fill="#ff6b38"/></g><g id="edge-C-L" data-from="C" data-to="L" data-direction="bidirectional" aria-label="Shared contract to Linux transport, bidirectional"><path d="M704 676V744" stroke="#ff6b38" stroke-width="4" fill="none"/><path d="M696 682L704 670L712 682Z" fill="#ff6b38"/><path d="M696 738L704 750L712 738Z" fill="#ff6b38"/></g><g id="node-W" role="group" aria-label="Windows transport - IOCP"><rect x="48" y="764" width="416" height="184" rx="16" fill="#172330" stroke="#2a3747" stroke-width="2"/><g role="img" aria-label="Windows" data-weight="700" fill="rgb(237, 243, 251)" fill-rule="nonzero"><g transform="translate(80 818) scale(42 -42)"><use href="#glz"/><use href="#gl3" x="0.914807"/><use href="#gl8" x="1.176711"/><use href="#glw" x="1.725818"/><use href="#gl7" x="2.284226"/><use href="#gl10" x="2.800967"/><use href="#gl11" x="3.530878"/></g></g><g role="img" aria-label="transport" data-weight="400" fill="rgb(164, 180, 201)" fill-rule="nonzero"><g transform="translate(80 862) scale(38 -38)"><use href="#glc"/><use href="#gl9" x="0.330592"/><use href="#glf" x="0.671464"/><use href="#glg" x="1.203125"/><use href="#gle" x="1.712993"/><use href="#glm" x="2.115543"/><use href="#gla" x="2.651316"/><use href="#gl9" x="3.152961"/><use href="#glc" x="3.509046"/></g></g><g role="img" aria-label="IOCP" data-weight="700" fill="rgb(237, 243, 251)" fill-rule="nonzero"><g transform="translate(80 914) scale(42 -42)"><use href="#gl12"/><use href="#gl13" x="0.270461"/><use href="#gl14" x="1.012277"/><use href="#glk" x="1.656994"/></g></g></g><g id="node-L" role="group" aria-label="Linux transport - epoll"><rect x="496" y="764" width="416" height="184" rx="16" fill="#172330" stroke="#2a3747" stroke-width="2"/><g role="img" aria-label="Linux" data-weight="700" fill="rgb(237, 243, 251)" fill-rule="nonzero"><g transform="translate(528 818) scale(42 -42)"><use href="#gl15"/><use href="#gl3" x="0.489955"/><use href="#gl8" x="0.75186"/><use href="#gl16" x="1.300967"/><use href="#gl17" x="1.848958"/></g></g><g role="img" aria-label="transport" data-weight="400" fill="rgb(164, 180, 201)" fill-rule="nonzero"><g transform="translate(528 862) scale(38 -38)"><use href="#glc"/><use href="#gl9" x="0.330592"/><use href="#glf" x="0.671464"/><use href="#glg" x="1.203125"/><use href="#gle" x="1.712993"/><use href="#glm" x="2.115543"/><use href="#gla" x="2.651316"/><use href="#gl9" x="3.152961"/><use href="#glc" x="3.509046"/></g></g><g role="img" aria-label="epoll" data-weight="700" fill="rgb(237, 243, 251)" fill-rule="nonzero"><g transform="translate(528 914) scale(42 -42)"><use href="#glv"/><use href="#gl1" x="0.497768"/><use href="#gl7" x="1.063988"/><use href="#gl2" x="1.580357"/><use href="#gl2" x="1.830357"/></g></g></g><path d="M48 984H912" fill="none" stroke="#2a3747" stroke-width="1.3"/><g role="img" aria-label="Each connection carries traffic in both directions." data-weight="400" fill="rgb(164, 180, 201)" fill-rule="nonzero"><g transform="translate(48 1020) scale(28 -28)"><use href="#gl18"/><use href="#glf" x="0.525112"/><use href="#glr" x="1.05692"/><use href="#gli" x="1.47154"/><use href="#glr" x="2.237723"/><use href="#gla" x="2.652902"/><use href="#glg" x="3.154018"/><use href="#glg" x="3.664063"/><use href="#gld" x="4.174107"/><use href="#glr" x="4.65067"/><use href="#glc" x="5.061942"/><use href="#gln" x="5.392857"/><use href="#gla" x="5.62221"/><use href="#glg" x="6.123884"/><use href="#glr" x="6.883371"/><use href="#glf" x="7.297991"/><use href="#gl9" x="7.829799"/><use href="#gl9" x="8.179688"/><use href="#gln" x="8.529576"/><use href="#gld" x="8.759487"/><use href="#gle" x="9.235491"/><use href="#glc" x="9.887835"/><use href="#gl9" x="10.21875"/><use href="#glf" x="10.559152"/><use href="#gl19" x="11.09096"/><use href="#gl19" x="11.383929"/><use href="#gln" x="11.676339"/><use href="#glr" x="11.969308"/><use href="#gln" x="12.633929"/><use href="#glg" x="12.863281"/><use href="#glx" x="13.622768"/><use href="#gla" x="14.146763"/><use href="#glc" x="14.648438"/><use href="#gli" x="14.979353"/><use href="#glh" x="15.745536"/><use href="#gln" x="16.269531"/><use href="#gl9" x="16.498884"/><use href="#gld" x="16.839286"/><use href="#glr" x="17.315848"/><use href="#glc" x="17.727121"/><use href="#gln" x="18.058036"/><use href="#gla" x="18.287388"/><use href="#glg" x="18.789063"/><use href="#gle" x="19.299107"/><use href="#gl1a" x="19.701451"/></g></g></svg>
